<svg width="144" height="44" viewBox="0 0 144 44" fill="none" xmlns="http://www.w3.org/2000/svg">
<path d="M21.3422 10.2699V14.4451C21.3422 18.7436 19.8844 22.2466 16.9688 24.9541C14.431 27.3022 11.5529 28.5046 8.3337 28.5612C6.81928 28.5803 5.82499 28.5803 5.35156 28.5612C4.21573 28.4862 3.09831 28.2675 2 27.908V20.0407C3.09831 20.3061 4.72668 20.4385 6.8858 20.4385C8.45684 20.4385 9.80142 19.9176 10.9188 18.8759C12.1686 17.7019 12.7935 16.1492 12.7935 14.218V10.2699H21.3422Z" fill="white"/>
<path d="M21.3422 10.2699V14.4451C21.3422 18.7436 19.8844 22.2466 16.9688 24.9541C14.431 27.3022 11.5529 28.5046 8.3337 28.5612C6.81928 28.5803 5.82499 28.5803 5.35156 28.5612C4.21573 28.4862 3.09831 28.2675 2 27.908V20.0407C3.09831 20.3061 4.72668 20.4385 6.8858 20.4385C8.45684 20.4385 9.80142 19.9176 10.9188 18.8759C12.1686 17.7019 12.7935 16.1492 12.7935 14.218V10.2699H21.3422Z" fill="white"/>
<path d="M12.8264 0.000354767H21.3759V7.07288H12.8264V0.000354767Z" fill="white"/>
<path d="M21.3754 7.07288V0.000357151H39.6674C42.3552 0.000357151 44.5667 0.611082 46.2984 1.83253C48.0315 3.05327 49.0576 4.80053 49.3803 7.07288H21.3754Z" fill="white"/>
<path d="M21.3754 7.07288V0.000357151H39.6674C42.3552 0.000357151 44.5667 0.611082 46.2984 1.83253C48.0315 3.05327 49.0576 4.80053 49.3803 7.07288H21.3754Z" fill="white"/>
<path d="M29.9522 28.5749H21.3751V10.2694H29.9522V28.5749Z" fill="white"/>
<path d="M36.3917 11.6898C37.8687 11.1597 38.9104 10.6863 39.5161 10.2702H49.5135C49.0415 12.7124 46.1633 15.013 40.8798 17.1714C39.1375 17.8911 36.1561 18.8571 31.9327 20.0687L31.9893 13.2233C33.4471 12.7315 34.9155 12.2205 36.3917 11.6898Z" fill="white"/>
<path d="M36.3917 11.6898C37.8687 11.1597 38.9104 10.6863 39.5161 10.2702H49.5135C49.0415 12.7124 46.1633 15.013 40.8798 17.1714C39.1375 17.8911 36.1561 18.8571 31.9327 20.0687L31.9893 13.2233C33.4471 12.7315 34.9155 12.2205 36.3917 11.6898Z" fill="white"/>
<path d="M58.0429 10.2699C57.0203 11.3873 56.5093 12.7028 56.5093 14.218C56.5093 16.1683 57.1342 17.721 58.3833 18.8759C59.5007 19.9176 60.8446 20.4385 62.417 20.4385C64.5754 20.4385 66.2038 20.3061 67.3021 20.0407V27.908C66.2038 28.2675 65.0871 28.4862 63.9506 28.5612C63.4771 28.5803 62.4828 28.5803 60.9684 28.5612C57.7485 28.5046 54.8711 27.3022 52.334 24.9541C49.4177 22.2466 47.9599 18.7436 47.9599 14.4451C47.9599 12.9873 48.1488 11.596 48.5282 10.2699H58.0429Z" fill="white"/>
<path d="M58.0429 10.2699C57.0203 11.3873 56.5093 12.7028 56.5093 14.218C56.5093 16.1683 57.1342 17.721 58.3833 18.8759C59.5007 19.9176 60.8446 20.4385 62.417 20.4385C64.5754 20.4385 66.2038 20.3061 67.3021 20.0407V27.908C66.2038 28.2675 65.0871 28.4862 63.9506 28.5612C63.4771 28.5803 62.4828 28.5803 60.9684 28.5612C57.7485 28.5046 54.8711 27.3022 52.334 24.9541C49.4177 22.2466 47.9599 18.7436 47.9599 14.4451C47.9599 12.9873 48.1488 11.596 48.5282 10.2699H58.0429Z" fill="white"/>
<path d="M49.3517 7.07288C50.506 4.90809 52.2723 3.18844 54.6487 1.91321C57.0251 0.637974 59.7468 0.000357151 62.8146 0.000357151C66.147 0.000357151 69.0719 0.596221 71.5905 1.78724C74.223 3.04549 76.0786 4.8076 77.1578 7.07288H49.3517Z" fill="white"/>
<path d="M49.3517 7.07288C50.506 4.90809 52.2723 3.18844 54.6487 1.91321C57.0251 0.637974 59.7468 0.000357151 62.8146 0.000357151C66.147 0.000357151 69.0719 0.596221 71.5905 1.78724C74.223 3.04549 76.0786 4.8076 77.1578 7.07288H49.3517Z" fill="white"/>
<path d="M77.9532 28.5751H69.0344V15.6346C69.0344 13.571 68.4569 11.7834 67.302 10.2697H77.6412C77.8492 11.2717 77.9532 12.3333 77.9532 13.4535V28.5751Z" fill="white"/>
<path d="M77.9532 28.5751H69.0344V15.6346C69.0344 13.571 68.4569 11.7834 67.302 10.2697H77.6412C77.8492 11.2717 77.9532 12.3333 77.9532 13.4535V28.5751Z" fill="white"/>
<path d="M86.4453 10.2698C86.7291 10.427 88.2626 11.0058 91.0459 12.0058C93.4888 12.9088 95.3253 13.8309 96.5559 14.7721C98.3364 16.1662 99.2267 17.8236 99.2267 19.7463C99.2267 22.5325 98.3166 24.71 96.5 26.2796C94.757 27.8103 92.3898 28.5753 89.3992 28.5753H77.1005V20.4229H88.6037C89.4933 20.4229 89.9384 20.0797 89.9384 19.3932C89.9384 18.7853 88.9441 18.1866 86.9563 17.5971C84.1539 16.7734 82.2134 16.0579 81.1335 15.4493C78.9178 14.1939 77.5831 12.4672 77.1288 10.2698H86.4453Z" fill="white"/>
<path d="M86.4453 10.2698C86.7291 10.427 88.2626 11.0058 91.0459 12.0058C93.4888 12.9088 95.3253 13.8309 96.5559 14.7721C98.3364 16.1662 99.2267 17.8236 99.2267 19.7463C99.2267 22.5325 98.3166 24.71 96.5 26.2796C94.757 27.8103 92.3898 28.5753 89.3992 28.5753H77.1005V20.4229H88.6037C89.4933 20.4229 89.9384 20.0797 89.9384 19.3932C89.9384 18.7853 88.9441 18.1866 86.9563 17.5971C84.1539 16.7734 82.2134 16.0579 81.1335 15.4493C78.9178 14.1939 77.5831 12.4672 77.1288 10.2698H86.4453Z" fill="white"/>
<path d="M77.1571 7.07288C77.46 4.80053 78.4925 3.04903 80.2532 1.81838C81.9573 0.606836 84.1624 0.000357151 86.8714 0.000357151H98.2317V7.07288H77.1571Z" fill="white"/>
<path d="M77.1571 7.07288C77.46 4.80053 78.4925 3.04903 80.2532 1.81838C81.9573 0.606836 84.1624 0.000357151 86.8714 0.000357151H98.2317V7.07288H77.1571Z" fill="white"/>
<path d="M98.0045 0.000354767H106.582V7.07288H98.0045V0.000354767Z" fill="white"/>
<path d="M106.582 28.5749H98.0045V10.2694H106.582V28.5749Z" fill="white"/>
<path d="M115.898 10.2698C114.857 11.4276 114.336 12.8302 114.336 14.4784V28.5753H105.759V14.4784C105.759 13.0461 105.957 11.6427 106.355 10.2698H115.898Z" fill="white"/>
<path d="M115.898 10.2698C114.857 11.4276 114.336 12.8302 114.336 14.4784V28.5753H105.759V14.4784C105.759 13.0461 105.957 11.6427 106.355 10.2698H115.898Z" fill="white"/>
<path d="M127.089 1.944C129.361 3.23976 131.085 4.94951 132.259 7.07324H107.207C108.381 4.94951 110.105 3.23976 112.377 1.944C114.65 0.648247 117.102 1.57356e-05 119.733 1.57356e-05C122.365 1.57356e-05 124.817 0.648247 127.089 1.944Z" fill="white"/>
<path d="M127.089 1.944C129.361 3.23976 131.085 4.94951 132.259 7.07324H107.207C108.381 4.94951 110.105 3.23976 112.377 1.944C114.65 0.648247 117.102 1.57356e-05 119.733 1.57356e-05C122.365 1.57356e-05 124.817 0.648247 127.089 1.944Z" fill="white"/>
<path d="M133.707 14.4783V28.5752H125.129V14.4783C125.129 12.8301 124.618 11.4275 123.596 10.2697H133.111C133.508 11.6433 133.707 13.0467 133.707 14.4783Z" fill="white"/>
<path d="M133.707 14.4783V28.5752H125.129V14.4783C125.129 12.8301 124.618 11.4275 123.596 10.2697H133.111C133.508 11.6433 133.707 13.0467 133.707 14.4783Z" fill="white"/>
<path d="M133.423 0.000354767H142V7.07288H133.423V0.000354767Z" fill="white"/>
<path d="M142 28.5749H133.423V10.2694H142V28.5749Z" fill="white"/>
<path d="M7.02344 34.8375V41H6.2418V39.9408C5.90951 40.3449 5.53568 40.6488 5.12031 40.8527C4.70872 41.0566 4.25749 41.1586 3.7666 41.1586C2.89434 41.1586 2.14857 40.8433 1.5293 40.2127C0.913802 39.5783 0.606055 38.808 0.606055 37.9018C0.606055 37.0144 0.917578 36.2554 1.54063 35.6248C2.16367 34.9942 2.91322 34.6789 3.78926 34.6789C4.29525 34.6789 4.75215 34.7865 5.15996 35.0018C5.57155 35.217 5.93216 35.5398 6.2418 35.9703V34.8375H7.02344ZM3.85156 35.4436C3.40977 35.4436 3.00195 35.5531 2.62813 35.7721C2.2543 35.9873 1.95599 36.2913 1.7332 36.684C1.51419 37.0767 1.40469 37.4921 1.40469 37.9301C1.40469 38.3643 1.51608 38.7797 1.73887 39.1762C1.96165 39.5727 2.25996 39.8823 2.63379 40.1051C3.01139 40.3241 3.41543 40.4336 3.8459 40.4336C4.28014 40.4336 4.69173 40.3241 5.08066 40.1051C5.4696 39.8861 5.7679 39.5896 5.97559 39.2158C6.18704 38.842 6.29277 38.421 6.29277 37.9527C6.29277 37.2391 6.05677 36.6424 5.58477 36.1629C5.11654 35.6833 4.5388 35.4436 3.85156 35.4436ZM8.51309 34.8375H9.32305V35.7381C9.56471 35.3831 9.8196 35.1188 10.0877 34.9451C10.3558 34.7676 10.6352 34.6789 10.926 34.6789C11.145 34.6789 11.3791 34.7488 11.6283 34.8885L11.2148 35.5568C11.0487 35.4851 10.909 35.4492 10.7957 35.4492C10.5314 35.4492 10.2765 35.5587 10.0311 35.7777C9.78561 35.993 9.5987 36.329 9.47031 36.7859C9.37214 37.1371 9.32305 37.847 9.32305 38.9156V41H8.51309V34.8375ZM18.4365 34.8375V43.2543H17.6549V39.9408C17.3226 40.3449 16.9488 40.6488 16.5334 40.8527C16.1218 41.0566 15.6706 41.1586 15.1797 41.1586C14.3074 41.1586 13.5617 40.8433 12.9424 40.2127C12.3269 39.5783 12.0191 38.808 12.0191 37.9018C12.0191 37.0144 12.3307 36.2554 12.9537 35.6248C13.5768 34.9942 14.3263 34.6789 15.2023 34.6789C15.7083 34.6789 16.1652 34.7865 16.573 35.0018C16.9846 35.217 17.3452 35.5398 17.6549 35.9703V34.8375H18.4365ZM15.2646 35.4436C14.8229 35.4436 14.415 35.5531 14.0412 35.7721C13.6674 35.9873 13.3691 36.2913 13.1463 36.684C12.9273 37.0767 12.8178 37.4921 12.8178 37.9301C12.8178 38.3643 12.9292 38.7797 13.152 39.1762C13.3747 39.5727 13.673 39.8823 14.0469 40.1051C14.4245 40.3241 14.8285 40.4336 15.259 40.4336C15.6932 40.4336 16.1048 40.3241 16.4938 40.1051C16.8827 39.8861 17.181 39.5896 17.3887 39.2158C17.6001 38.842 17.7059 38.421 17.7059 37.9527C17.7059 37.2391 17.4699 36.6424 16.9979 36.1629C16.5296 35.6833 15.9519 35.4436 15.2646 35.4436ZM20.1188 34.8375H20.9174V37.7148C20.9174 38.4172 20.9551 38.9005 21.0307 39.1648C21.1439 39.5424 21.3592 39.8408 21.6764 40.0598C21.9973 40.2788 22.3787 40.3883 22.8205 40.3883C23.2623 40.3883 23.6361 40.2826 23.942 40.0711C24.2516 39.8559 24.465 39.5745 24.582 39.2271C24.6613 38.9893 24.701 38.4852 24.701 37.7148V34.8375H25.5109V37.8621C25.5109 38.7117 25.4109 39.3518 25.2107 39.7822C25.0144 40.2127 24.7161 40.5507 24.3158 40.7961C23.9193 41.0378 23.4209 41.1586 22.8205 41.1586C22.2201 41.1586 21.7179 41.0378 21.3139 40.7961C20.9136 40.5507 20.6134 40.2108 20.4133 39.7766C20.2169 39.3385 20.1188 38.6815 20.1188 37.8055V34.8375ZM27.5557 32.3C27.7369 32.3 27.8917 32.3642 28.0201 32.4926C28.1485 32.621 28.2127 32.7758 28.2127 32.957C28.2127 33.1345 28.1485 33.2874 28.0201 33.4158C27.8917 33.5442 27.7369 33.6084 27.5557 33.6084C27.3782 33.6084 27.2253 33.5442 27.0969 33.4158C26.9685 33.2874 26.9043 33.1345 26.9043 32.957C26.9043 32.7758 26.9685 32.621 27.0969 32.4926C27.2253 32.3642 27.3782 32.3 27.5557 32.3ZM27.1592 34.8375H27.9578V41H27.1592V34.8375ZM30.2914 32.5492H31.09V34.8375H32.3475V35.5172H31.09V41H30.2914V35.5172H29.2096V34.8375H30.2914V32.5492ZM38.7195 38.9553L39.3879 39.3064C39.1689 39.7369 38.9159 40.0843 38.6289 40.3486C38.3419 40.613 38.0191 40.815 37.6604 40.9547C37.3016 41.0906 36.8957 41.1586 36.4426 41.1586C35.4382 41.1586 34.6527 40.8301 34.0863 40.173C33.5199 39.5122 33.2367 38.7665 33.2367 37.9357C33.2367 37.1541 33.4765 36.4574 33.9561 35.8457C34.564 35.0678 35.3777 34.6789 36.3973 34.6789C37.447 34.6789 38.2853 35.0773 38.9121 35.874C39.3577 36.4367 39.5842 37.139 39.5918 37.9811H34.0523C34.0675 38.6985 34.2959 39.2876 34.7377 39.7482C35.1795 40.2051 35.7251 40.4336 36.3746 40.4336C36.688 40.4336 36.992 40.3788 37.2865 40.2693C37.5848 40.1598 37.8378 40.0145 38.0455 39.8332C38.2532 39.652 38.4779 39.3593 38.7195 38.9553ZM38.7195 37.2957C38.6138 36.8728 38.459 36.5348 38.2551 36.2818C38.055 36.0288 37.7887 35.8249 37.4564 35.6701C37.1242 35.5153 36.7749 35.4379 36.4086 35.4379C35.8044 35.4379 35.2852 35.6324 34.851 36.0213C34.5338 36.3045 34.294 36.7293 34.1316 37.2957H38.7195ZM41.7668 32.5492H42.5654V34.8375H43.8229V35.5172H42.5654V41H41.7668V35.5172H40.685V34.8375H41.7668V32.5492ZM44.9047 34.8375H45.7033V37.7148C45.7033 38.4172 45.7411 38.9005 45.8166 39.1648C45.9299 39.5424 46.1451 39.8408 46.4623 40.0598C46.7833 40.2788 47.1646 40.3883 47.6064 40.3883C48.0482 40.3883 48.4221 40.2826 48.7279 40.0711C49.0376 39.8559 49.2509 39.5745 49.368 39.2271C49.4473 38.9893 49.4869 38.4852 49.4869 37.7148V34.8375H50.2969V37.8621C50.2969 38.7117 50.1968 39.3518 49.9967 39.7822C49.8003 40.2127 49.502 40.5507 49.1018 40.7961C48.7053 41.0378 48.2068 41.1586 47.6064 41.1586C47.0061 41.1586 46.5038 41.0378 46.0998 40.7961C45.6995 40.5507 45.3993 40.2108 45.1992 39.7766C45.0029 39.3385 44.9047 38.6815 44.9047 37.8055V34.8375ZM51.7639 34.8375H52.5738V35.7381C52.8155 35.3831 53.0704 35.1188 53.3385 34.9451C53.6066 34.7676 53.886 34.6789 54.1768 34.6789C54.3958 34.6789 54.6299 34.7488 54.8791 34.8885L54.4656 35.5568C54.2995 35.4851 54.1598 35.4492 54.0465 35.4492C53.7822 35.4492 53.5273 35.5587 53.2818 35.7777C53.0364 35.993 52.8495 36.329 52.7211 36.7859C52.6229 37.1371 52.5738 37.847 52.5738 38.9156V41H51.7639V34.8375ZM61.693 34.8375V41H60.9113V39.9408C60.579 40.3449 60.2052 40.6488 59.7898 40.8527C59.3783 41.0566 58.927 41.1586 58.4361 41.1586C57.5639 41.1586 56.8181 40.8433 56.1988 40.2127C55.5833 39.5783 55.2756 38.808 55.2756 37.9018C55.2756 37.0144 55.5871 36.2554 56.2102 35.6248C56.8332 34.9942 57.5827 34.6789 58.4588 34.6789C58.9648 34.6789 59.4217 34.7865 59.8295 35.0018C60.2411 35.217 60.6017 35.5398 60.9113 35.9703V34.8375H61.693ZM58.5211 35.4436C58.0793 35.4436 57.6715 35.5531 57.2977 35.7721C56.9238 35.9873 56.6255 36.2913 56.4027 36.684C56.1837 37.0767 56.0742 37.4921 56.0742 37.9301C56.0742 38.3643 56.1856 38.7797 56.4084 39.1762C56.6312 39.5727 56.9295 39.8823 57.3033 40.1051C57.6809 40.3241 58.085 40.4336 58.5154 40.4336C58.9497 40.4336 59.3613 40.3241 59.7502 40.1051C60.1391 39.8861 60.4374 39.5896 60.6451 39.2158C60.8566 38.842 60.9623 38.421 60.9623 37.9527C60.9623 37.2391 60.7263 36.6424 60.2543 36.1629C59.7861 35.6833 59.2083 35.4436 58.5211 35.4436ZM71.8883 38.9553L72.5566 39.3064C72.3376 39.7369 72.0846 40.0843 71.7977 40.3486C71.5107 40.613 71.1878 40.815 70.8291 40.9547C70.4704 41.0906 70.0645 41.1586 69.6113 41.1586C68.6069 41.1586 67.8215 40.8301 67.2551 40.173C66.6887 39.5122 66.4055 38.7665 66.4055 37.9357C66.4055 37.1541 66.6452 36.4574 67.1248 35.8457C67.7327 35.0678 68.5465 34.6789 69.566 34.6789C70.6158 34.6789 71.454 35.0773 72.0809 35.874C72.5264 36.4367 72.753 37.139 72.7605 37.9811H67.2211C67.2362 38.6985 67.4646 39.2876 67.9064 39.7482C68.3482 40.2051 68.8939 40.4336 69.5434 40.4336C69.8568 40.4336 70.1607 40.3788 70.4553 40.2693C70.7536 40.1598 71.0066 40.0145 71.2143 39.8332C71.4219 39.652 71.6466 39.3593 71.8883 38.9553ZM71.8883 37.2957C71.7826 36.8728 71.6277 36.5348 71.4238 36.2818C71.2237 36.0288 70.9575 35.8249 70.6252 35.6701C70.2929 35.5153 69.9436 35.4379 69.5773 35.4379C68.9732 35.4379 68.454 35.6324 68.0197 36.0213C67.7025 36.3045 67.4628 36.7293 67.3004 37.2957H71.8883ZM82.65 38.9553L83.3184 39.3064C83.0993 39.7369 82.8464 40.0843 82.5594 40.3486C82.2724 40.613 81.9495 40.815 81.5908 40.9547C81.2321 41.0906 80.8262 41.1586 80.373 41.1586C79.3686 41.1586 78.5832 40.8301 78.0168 40.173C77.4504 39.5122 77.1672 38.7665 77.1672 37.9357C77.1672 37.1541 77.407 36.4574 77.8865 35.8457C78.4945 35.0678 79.3082 34.6789 80.3277 34.6789C81.3775 34.6789 82.2158 35.0773 82.8426 35.874C83.2882 36.4367 83.5147 37.139 83.5223 37.9811H77.9828C77.9979 38.6985 78.2264 39.2876 78.6682 39.7482C79.11 40.2051 79.6556 40.4336 80.3051 40.4336C80.6185 40.4336 80.9225 40.3788 81.217 40.2693C81.5153 40.1598 81.7683 40.0145 81.976 39.8332C82.1837 39.652 82.4083 39.3593 82.65 38.9553ZM82.65 37.2957C82.5443 36.8728 82.3895 36.5348 82.1855 36.2818C81.9854 36.0288 81.7192 35.8249 81.3869 35.6701C81.0546 35.5153 80.7053 35.4379 80.3391 35.4379C79.7349 35.4379 79.2157 35.6324 78.7814 36.0213C78.4643 36.3045 78.2245 36.7293 78.0621 37.2957H82.65ZM85.0063 34.8375H85.7992V35.942C86.1164 35.5191 86.4676 35.2038 86.8527 34.9961C87.2379 34.7846 87.657 34.6789 88.1102 34.6789C88.5708 34.6789 88.9786 34.796 89.3336 35.0301C89.6923 35.2642 89.9566 35.5795 90.1266 35.976C90.2965 36.3725 90.3814 36.9898 90.3814 37.8281V41H89.5941V38.0604C89.5941 37.3505 89.5639 36.8766 89.5035 36.6387C89.4091 36.2309 89.2316 35.925 88.9711 35.7211C88.7105 35.5134 88.3707 35.4096 87.9516 35.4096C87.472 35.4096 87.0415 35.5682 86.6602 35.8854C86.2826 36.2025 86.0333 36.5952 85.9125 37.0635C85.837 37.3693 85.7992 37.9282 85.7992 38.74V41H85.0063V34.8375ZM97.3936 34.8375H98.1922V39.7482C98.1922 40.613 98.1167 41.2454 97.9656 41.6457C97.7579 42.2121 97.3973 42.6482 96.8838 42.9541C96.3702 43.26 95.7529 43.4129 95.0316 43.4129C94.503 43.4129 94.0272 43.3374 93.6043 43.1863C93.1852 43.0391 92.8434 42.8389 92.5791 42.5859C92.3148 42.3367 92.0712 41.9704 91.8484 41.4871H92.7094C92.9435 41.8949 93.2456 42.197 93.6156 42.3934C93.9857 42.5897 94.4445 42.6879 94.992 42.6879C95.532 42.6879 95.987 42.5859 96.357 42.382C96.7309 42.1819 96.9971 41.9289 97.1557 41.623C97.3143 41.3172 97.3936 40.8244 97.3936 40.1447V39.8275C97.0952 40.2051 96.7309 40.4959 96.3004 40.6998C95.8699 40.8999 95.413 41 94.9297 41C94.3633 41 93.8309 40.8603 93.3324 40.5809C92.834 40.2977 92.4488 39.9182 92.177 39.4424C91.9051 38.9666 91.7691 38.4436 91.7691 37.8734C91.7691 37.3033 91.9107 36.7727 92.1939 36.2818C92.4772 35.7872 92.868 35.3964 93.3664 35.1094C93.8686 34.8224 94.3973 34.6789 94.9523 34.6789C95.413 34.6789 95.8416 34.7752 96.2381 34.9678C96.6383 35.1566 97.0235 35.47 97.3936 35.908V34.8375ZM95.0543 35.4436C94.6049 35.4436 94.1877 35.5531 93.8025 35.7721C93.4174 35.9873 93.1153 36.2875 92.8963 36.6727C92.6773 37.054 92.5678 37.4675 92.5678 37.9131C92.5678 38.589 92.7943 39.1479 93.2475 39.5896C93.7006 40.0314 94.2878 40.2523 95.009 40.2523C95.7378 40.2523 96.323 40.0333 96.7648 39.5953C97.2104 39.1573 97.4332 38.5814 97.4332 37.8678C97.4332 37.4033 97.3313 36.9898 97.1273 36.6273C96.9234 36.2611 96.6346 35.9722 96.2607 35.7607C95.8869 35.5493 95.4848 35.4436 95.0543 35.4436ZM105.08 38.9553L105.748 39.3064C105.529 39.7369 105.276 40.0843 104.989 40.3486C104.702 40.613 104.379 40.815 104.021 40.9547C103.662 41.0906 103.256 41.1586 102.803 41.1586C101.798 41.1586 101.013 40.8301 100.446 40.173C99.8801 39.5122 99.5969 38.7665 99.5969 37.9357C99.5969 37.1541 99.8367 36.4574 100.316 35.8457C100.924 35.0678 101.738 34.6789 102.757 34.6789C103.807 34.6789 104.645 35.0773 105.272 35.874C105.718 36.4367 105.944 37.139 105.952 37.9811H100.413C100.428 38.6985 100.656 39.2876 101.098 39.7482C101.54 40.2051 102.085 40.4336 102.735 40.4336C103.048 40.4336 103.352 40.3788 103.647 40.2693C103.945 40.1598 104.198 40.0145 104.406 39.8332C104.613 39.652 104.838 39.3593 105.08 38.9553ZM105.08 37.2957C104.974 36.8728 104.819 36.5348 104.615 36.2818C104.415 36.0288 104.149 35.8249 103.817 35.6701C103.484 35.5153 103.135 35.4379 102.769 35.4379C102.165 35.4379 101.645 35.6324 101.211 36.0213C100.894 36.3045 100.654 36.7293 100.492 37.2957H105.08ZM107.436 34.8375H108.229V35.942C108.546 35.5191 108.897 35.2038 109.282 34.9961C109.668 34.7846 110.087 34.6789 110.54 34.6789C111.001 34.6789 111.408 34.796 111.763 35.0301C112.122 35.2642 112.386 35.5795 112.556 35.976C112.726 36.3725 112.811 36.9898 112.811 37.8281V41H112.024V38.0604C112.024 37.3505 111.994 36.8766 111.933 36.6387C111.839 36.2309 111.661 35.925 111.401 35.7211C111.14 35.5134 110.8 35.4096 110.381 35.4096C109.902 35.4096 109.471 35.5682 109.09 35.8854C108.712 36.2025 108.463 36.5952 108.342 37.0635C108.267 37.3693 108.229 37.9282 108.229 38.74V41H107.436V34.8375ZM114.516 32.4586H115.309V35.942C115.63 35.5191 115.983 35.2038 116.368 34.9961C116.753 34.7846 117.171 34.6789 117.62 34.6789C118.081 34.6789 118.488 34.796 118.843 35.0301C119.202 35.2642 119.466 35.5795 119.636 35.976C119.806 36.3687 119.891 36.9861 119.891 37.8281V41H119.098V38.0604C119.098 37.3505 119.07 36.8766 119.013 36.6387C118.915 36.2309 118.736 35.925 118.475 35.7211C118.218 35.5134 117.88 35.4096 117.461 35.4096C116.982 35.4096 116.551 35.5682 116.17 35.8854C115.792 36.2025 115.543 36.5952 115.422 37.0635C115.347 37.3656 115.309 37.9244 115.309 38.74V41H114.516V32.4586ZM127.736 34.8375V41H126.954V39.9408C126.622 40.3449 126.248 40.6488 125.833 40.8527C125.421 41.0566 124.97 41.1586 124.479 41.1586C123.607 41.1586 122.861 40.8433 122.242 40.2127C121.626 39.5783 121.319 38.808 121.319 37.9018C121.319 37.0144 121.63 36.2554 122.253 35.6248C122.876 34.9942 123.626 34.6789 124.502 34.6789C125.008 34.6789 125.465 34.7865 125.872 35.0018C126.284 35.217 126.645 35.5398 126.954 35.9703V34.8375H127.736ZM124.564 35.4436C124.122 35.4436 123.714 35.5531 123.341 35.7721C122.967 35.9873 122.668 36.2913 122.446 36.684C122.227 37.0767 122.117 37.4921 122.117 37.9301C122.117 38.3643 122.229 38.7797 122.451 39.1762C122.674 39.5727 122.972 39.8823 123.346 40.1051C123.724 40.3241 124.128 40.4336 124.558 40.4336C124.993 40.4336 125.404 40.3241 125.793 40.1051C126.182 39.8861 126.48 39.5896 126.688 39.2158C126.9 38.842 127.005 38.421 127.005 37.9527C127.005 37.2391 126.769 36.6424 126.297 36.1629C125.829 35.6833 125.251 35.4436 124.564 35.4436ZM129.226 34.8375H130.036V35.7381C130.277 35.3831 130.532 35.1188 130.8 34.9451C131.068 34.7676 131.348 34.6789 131.638 34.6789C131.857 34.6789 132.092 34.7488 132.341 34.8885L131.927 35.5568C131.761 35.4851 131.621 35.4492 131.508 35.4492C131.244 35.4492 130.989 35.5587 130.744 35.7777C130.498 35.993 130.311 36.329 130.183 36.7859C130.085 37.1371 130.036 37.847 130.036 38.9156V41H129.226V34.8375ZM133.292 32.3C133.474 32.3 133.628 32.3642 133.757 32.4926C133.885 32.621 133.949 32.7758 133.949 32.957C133.949 33.1345 133.885 33.2874 133.757 33.4158C133.628 33.5442 133.474 33.6084 133.292 33.6084C133.115 33.6084 132.962 33.5442 132.834 33.4158C132.705 33.2874 132.641 33.1345 132.641 32.957C132.641 32.7758 132.705 32.621 132.834 32.4926C132.962 32.3642 133.115 32.3 133.292 32.3ZM132.896 34.8375H133.695V41H132.896V34.8375ZM141.477 34.8375V41H140.695V39.9408C140.363 40.3449 139.989 40.6488 139.574 40.8527C139.162 41.0566 138.711 41.1586 138.22 41.1586C137.348 41.1586 136.602 40.8433 135.983 40.2127C135.367 39.5783 135.06 38.808 135.06 37.9018C135.06 37.0144 135.371 36.2554 135.994 35.6248C136.617 34.9942 137.367 34.6789 138.243 34.6789C138.749 34.6789 139.206 34.7865 139.613 35.0018C140.025 35.217 140.386 35.5398 140.695 35.9703V34.8375H141.477ZM138.305 35.4436C137.863 35.4436 137.455 35.5531 137.082 35.7721C136.708 35.9873 136.41 36.2913 136.187 36.684C135.968 37.0767 135.858 37.4921 135.858 37.9301C135.858 38.3643 135.97 38.7797 136.192 39.1762C136.415 39.5727 136.713 39.8823 137.087 40.1051C137.465 40.3241 137.869 40.4336 138.299 40.4336C138.734 40.4336 139.145 40.3241 139.534 40.1051C139.923 39.8861 140.221 39.5896 140.429 39.2158C140.641 38.842 140.746 38.421 140.746 37.9527C140.746 37.2391 140.51 36.6424 140.038 36.1629C139.57 35.6833 138.992 35.4436 138.305 35.4436Z" fill="white"/>
</svg>
